<?xml version="1.0" encoding="utf-8"?>
<!-- Generator: Adobe Illustrator 25.4.1, SVG Export Plug-In . SVG Version: 6.00 Build 0)  -->
<svg version="1.1" id="Capa_1" xmlns="http://www.w3.org/2000/svg" xmlns:xlink="http://www.w3.org/1999/xlink" x="0px" y="0px"
	 viewBox="0 0 274 39" style="enable-background:new 0 0 274 39;" xml:space="preserve">
<style type="text/css">
	.st0{fill:#671CC9;}
</style>
<path class="st0" d="M10.4,5.5c1.7,0,3.1,0.3,4.4,1C16.1,7.1,17,8,17.8,9V5.8h5.6v22.3c0,2.1-0.4,3.9-1.2,5.5
	c-0.8,1.6-2.1,2.9-3.7,3.8c-1.7,1-3.7,1.4-6,1.4c-3.1,0-5.7-0.7-7.8-2.2c-2-1.5-3.1-3.5-3.4-6h5.6c0.3,1,0.9,1.8,1.9,2.4
	c1,0.6,2.2,0.9,3.6,0.9c1.6,0,2.9-0.5,4-1.5c1-1,1.5-2.4,1.5-4.4v-3.4c-0.7,1-1.7,1.9-3,2.6c-1.3,0.7-2.7,1-4.3,1
	c-1.9,0-3.6-0.5-5.1-1.4c-1.5-1-2.8-2.3-3.7-4c-0.9-1.8-1.3-3.8-1.3-6c0-2.2,0.4-4.2,1.3-6c0.9-1.7,2.1-3.1,3.6-4
	C6.8,5.9,8.5,5.5,10.4,5.5z M17.8,16.9c0-1.4-0.3-2.5-0.8-3.5c-0.5-1-1.3-1.7-2.2-2.2c-0.9-0.5-1.9-0.8-2.9-0.8s-2,0.3-2.9,0.8
	c-0.9,0.5-1.6,1.3-2.2,2.2c-0.5,1-0.8,2.1-0.8,3.4s0.3,2.5,0.8,3.5c0.6,1,1.3,1.7,2.2,2.3c0.9,0.5,1.9,0.8,2.9,0.8
	c1,0,2-0.3,2.9-0.8c0.9-0.5,1.6-1.3,2.2-2.2C17.5,19.5,17.8,18.3,17.8,16.9z M38.7,28.4c-2.1,0-4.1-0.5-5.8-1.4c-1.7-1-3.1-2.3-4-4
	c-1-1.7-1.4-3.7-1.4-6s0.5-4.3,1.5-6c1-1.7,2.4-3.1,4.1-4c1.7-1,3.7-1.4,5.8-1.4c2.1,0,4.1,0.5,5.8,1.4c1.7,0.9,3.1,2.3,4.1,4
	c1,1.7,1.5,3.7,1.5,6s-0.5,4.3-1.6,6c-1,1.7-2.4,3.1-4.2,4C42.8,27.9,40.9,28.4,38.7,28.4z M38.7,23.5c1,0,2-0.2,2.8-0.7
	c0.9-0.5,1.6-1.3,2.2-2.2c0.5-1,0.8-2.2,0.8-3.6c0-2.1-0.6-3.7-1.7-4.8c-1.1-1.1-2.4-1.7-4-1.7c-1.6,0-2.9,0.6-4,1.7
	c-1.1,1.1-1.6,2.7-1.6,4.8s0.5,3.7,1.6,4.9C35.8,22.9,37.1,23.5,38.7,23.5z M81.9,5.5c2.7,0,4.9,0.8,6.6,2.5c1.7,1.7,2.5,4,2.5,7v13
	h-5.6V15.8c0-1.7-0.4-3.1-1.3-4c-0.9-0.9-2.1-1.4-3.6-1.4c-1.5,0-2.7,0.5-3.6,1.4c-0.9,0.9-1.3,2.2-1.3,4V28h-5.6V15.8
	c0-1.7-0.4-3.1-1.3-4c-0.9-0.9-2.1-1.4-3.6-1.4c-1.5,0-2.8,0.5-3.7,1.4c-0.9,0.9-1.3,2.2-1.3,4V28h-5.6V5.8H60v2.7
	c0.7-0.9,1.6-1.7,2.8-2.2c1.1-0.5,2.4-0.8,3.8-0.8c1.7,0,3.3,0.4,4.6,1.1c1.4,0.7,2.4,1.8,3.2,3.1c0.7-1.3,1.8-2.3,3.1-3.1
	C78.8,5.9,80.3,5.5,81.9,5.5z M117.5,5.8l-13.7,32.6h-6l4.8-11L93.7,5.8h6.3l5.7,15.5l5.8-15.5H117.5z M141.1,16.4
	c0,0.8-0.1,1.5-0.2,2.2h-16.2c0.1,1.6,0.7,2.9,1.7,3.8s2.2,1.4,3.6,1.4c2.1,0,3.6-0.9,4.4-2.7h6c-0.6,2.1-1.9,3.9-3.7,5.3
	c-1.8,1.4-4,2-6.7,2c-2.1,0-4.1-0.5-5.8-1.4c-1.7-1-3-2.3-4-4c-0.9-1.7-1.4-3.7-1.4-6c0-2.3,0.5-4.3,1.4-6c0.9-1.7,2.2-3.1,3.9-4
	s3.6-1.4,5.8-1.4c2.1,0,4,0.5,5.6,1.4c1.7,0.9,3,2.2,3.9,3.9C140.6,12.4,141.1,14.3,141.1,16.4z M135.3,14.8c0-1.4-0.5-2.6-1.6-3.4
	c-1-0.9-2.3-1.3-3.7-1.3c-1.4,0-2.6,0.4-3.5,1.3c-0.9,0.8-1.5,2-1.7,3.5H135.3z M143.8,16.9c0-2.3,0.5-4.3,1.4-6
	c0.9-1.7,2.2-3.1,3.9-4c1.7-1,3.5-1.4,5.7-1.4c2.7,0,5,0.7,6.8,2.1c1.8,1.4,3,3.3,3.6,5.8h-6c-0.3-1-0.9-1.7-1.6-2.2
	c-0.7-0.6-1.7-0.8-2.8-0.8c-1.6,0-2.9,0.6-3.8,1.8c-0.9,1.1-1.4,2.8-1.4,4.9c0,2.1,0.5,3.7,1.4,4.9c0.9,1.1,2.2,1.7,3.8,1.7
	c2.3,0,3.7-1,4.4-3h6c-0.6,2.4-1.8,4.3-3.6,5.7c-1.8,1.4-4.1,2.1-6.8,2.1c-2.1,0-4-0.5-5.7-1.4c-1.7-1-2.9-2.3-3.9-4
	C144.2,21.2,143.8,19.2,143.8,16.9z M179.1,28.4c-2.1,0-4.1-0.5-5.8-1.4c-1.7-1-3.1-2.3-4-4c-1-1.7-1.4-3.7-1.4-6s0.5-4.3,1.5-6
	c1-1.7,2.4-3.1,4.1-4c1.7-1,3.7-1.4,5.8-1.4c2.1,0,4.1,0.5,5.8,1.4c1.7,0.9,3.1,2.3,4.1,4c1,1.7,1.5,3.7,1.5,6s-0.5,4.3-1.6,6
	c-1,1.7-2.4,3.1-4.2,4C183.2,27.9,181.3,28.4,179.1,28.4z M179.1,23.5c1,0,2-0.2,2.8-0.7c0.9-0.5,1.6-1.3,2.2-2.2
	c0.5-1,0.8-2.2,0.8-3.6c0-2.1-0.6-3.7-1.7-4.8c-1.1-1.1-2.4-1.7-4-1.7c-1.6,0-2.9,0.6-4,1.7c-1.1,1.1-1.6,2.7-1.6,4.8
	s0.5,3.7,1.6,4.9C176.2,22.9,177.5,23.5,179.1,23.5z M201.3,10.4v10.7c0,0.7,0.2,1.3,0.5,1.6c0.4,0.3,1,0.5,1.8,0.5h2.6V28h-3.5
	c-4.7,0-7.1-2.3-7.1-6.9V10.4H193V5.8h2.6V0.4h5.6v5.5h5v4.6H201.3z M215.9,9.3c0.7-1.2,1.7-2.1,2.8-2.8c1.2-0.7,2.5-1,4-1v5.9h-1.5
	c-1.8,0-3.1,0.4-4,1.2c-0.9,0.8-1.3,2.3-1.3,4.3v11h-5.6V5.8h5.6V9.3z M247.6,5.8l-13.7,32.6h-6l4.8-11l-8.9-21.6h6.3l5.7,15.5
	l5.8-15.5H247.6z M256.3,9c0.7-1,1.7-1.9,3-2.5c1.3-0.7,2.7-1,4.4-1c1.9,0,3.6,0.5,5.1,1.4c1.5,0.9,2.8,2.3,3.6,4
	c0.9,1.7,1.4,3.7,1.4,6s-0.5,4.3-1.4,6c-0.9,1.7-2.1,3.1-3.6,4c-1.5,1-3.2,1.4-5.1,1.4c-1.6,0-3.1-0.3-4.3-1c-1.2-0.7-2.2-1.5-3-2.5
	v13.7h-5.6V5.8h5.6V9z M268,16.8c0-1.3-0.3-2.5-0.8-3.4c-0.5-1-1.3-1.7-2.2-2.2c-0.9-0.5-1.8-0.8-2.9-0.8c-1,0-2,0.3-2.9,0.8
	c-0.9,0.5-1.6,1.3-2.2,2.2c-0.5,1-0.8,2.1-0.8,3.5s0.3,2.5,0.8,3.5c0.6,1,1.3,1.7,2.2,2.3c0.9,0.5,1.9,0.8,2.9,0.8
	c1,0,2-0.3,2.9-0.8c0.9-0.5,1.6-1.3,2.2-2.3C267.7,19.4,268,18.2,268,16.8z"/>
</svg>
