<?xml version="1.0" encoding="utf-8"?>
<!-- Generator: Adobe Illustrator 25.4.1, SVG Export Plug-In . SVG Version: 6.00 Build 0)  -->
<svg version="1.1" id="Capa_1" xmlns="http://www.w3.org/2000/svg" xmlns:xlink="http://www.w3.org/1999/xlink" x="0px" y="0px"
	 viewBox="0 0 35 35" style="enable-background:new 0 0 35 35;" xml:space="preserve">
<style type="text/css">
	.st0{fill:#671CC9;}
</style>
<path class="st0" d="M34.4,12.4L34.4,12.4c0-0.2-0.1-0.3-0.2-0.4c-0.1-0.1-0.2-0.2-0.3-0.2c-0.1,0-2.4-0.8-5.6-0.5
	c-3,0.2-7.4,1.3-11.5,5.4s-5.2,8.6-5.4,11.6c-0.2,3.3,0.5,5.6,0.5,5.7c0,0.1,0.1,0.2,0.2,0.3c0.1,0.1,0.2,0.2,0.3,0.2
	c0.1,0,1.8,0.6,4.4,0.6c0.4,0,0.8,0,1.2,0c3-0.2,7.4-1.3,11.5-5.4C36.8,22.3,34.9,14,34.4,12.4z M28.3,12.8c1.3-0.1,2.6,0,3.8,0.2
	c0,0-0.1,0.1-0.1,0.1l-5.6,5.6v-5.6C27.1,12.9,27.7,12.9,28.3,12.8L28.3,12.8z M19.7,25.5v-9.2c0,0,0-0.1,0-0.1
	c1.6-1.2,3.3-2.2,5.2-2.7v6.8L19.7,25.5z M13,28.4c0.3-4,1.9-7.6,4.9-10.6c0.1-0.1,0.2-0.2,0.3-0.3V27c0,0,0,0,0,0l-5,5.1
	C12.9,30.9,12.9,29.6,13,28.4L13,28.4z M18,33.4c-1.3,0.1-2.5,0-3.8-0.2l2.4-2.4h9C23.3,32.3,20.7,33.2,18,33.4L18,33.4z M28.5,28.4
	c-0.3,0.3-0.6,0.5-0.8,0.8h-9.4l4.5-4.5h8.6C30.5,26.1,29.6,27.3,28.5,28.4z M32.1,23.1h-7.9l8.9-8.9c0,0,0.1-0.1,0.1-0.1
	C33.7,17.1,33.4,20.3,32.1,23.1L32.1,23.1z"/>
<path class="st0" d="M12.4,15.9l2.4-8.7c0.7,0.9,1.4,1.9,2,2.9c0.1,0.2,0.3,0.3,0.5,0.4c0.2,0.1,0.4,0,0.6-0.1
	c0.2-0.1,0.3-0.3,0.4-0.5c0.1-0.2,0-0.4-0.1-0.6C15.3,4.3,11.4,2,8.6,1C5.5-0.1,3.1,0,3,0c-0.1,0-0.3,0-0.4,0.1
	C2.5,0.2,2.4,0.3,2.4,0.4l0,0C1.5,1.8-2.5,9.3,2.5,18.2C4,21,6.1,23.3,8.7,24.9C8.8,25,8.9,25,9,25c0.1,0,0.2,0,0.3,0
	c0.1,0,0.2-0.1,0.3-0.1c0.1-0.1,0.2-0.1,0.2-0.2s0.1-0.2,0.1-0.3c0-0.1,0-0.2,0-0.3c0-0.1-0.1-0.2-0.1-0.3c-0.1-0.1-0.1-0.2-0.2-0.2
	c-2.3-1.5-4.2-3.5-5.7-6.1c-1.3-2.3-1.9-4.4-2.1-6.4l7.4,2.1l2.6,4.6c0,0.1,0.1,0.2,0.2,0.3c0.1,0.1,0.2,0.1,0.3,0.2
	c0.1,0,0.2,0,0.3,0c0.1,0,0.2,0,0.3-0.1c0.1-0.1,0.2-0.1,0.2-0.2c0.1-0.1,0.1-0.2,0.1-0.3c0-0.1,0-0.2,0-0.3c0-0.1-0.1-0.2-0.1-0.3
	L12.4,15.9z M11.3,14L8.8,9.4l1.6-5.9c1.2,0.6,2.2,1.4,3.2,2.4L11.3,14z M8,2.5C8.4,2.6,8.7,2.7,9,2.8L7.7,7.5L4.4,1.7
	c0,0,0,0,0-0.1C5.6,1.8,6.9,2,8,2.5L8,2.5z M1.6,9.4c0-2.4,0.5-4.8,1.5-7c0,0,0,0,0,0.1L8,11.2L1.6,9.4L1.6,9.4z"/>
</svg>
